<svg xmlns="http://www.w3.org/2000/svg" viewBox="0 0 800 450">
  <defs>
    <linearGradient id="bg1" x1="0%" y1="0%" x2="100%" y2="100%">
      <stop offset="0%" stop-color="#1a1a1d"/>
      <stop offset="100%" stop-color="#0a0a0b"/>
    </linearGradient>
  </defs>
  <rect width="800" height="450" fill="url(#bg1)"/>
  <!-- Grid pattern -->
  <g stroke="#f59e0b" stroke-opacity="0.1" stroke-width="1">
    <line x1="0" y1="80" x2="800" y2="80"/>
    <line x1="0" y1="160" x2="800" y2="160"/>
    <line x1="0" y1="240" x2="800" y2="240"/>
    <line x1="0" y1="320" x2="800" y2="320"/>
    <line x1="160" y1="0" x2="160" y2="450"/>
    <line x1="320" y1="0" x2="320" y2="450"/>
    <line x1="480" y1="0" x2="480" y2="450"/>
    <line x1="640" y1="0" x2="640" y2="450"/>
  </g>
  <!-- Shopping cart icon -->
  <g transform="translate(320, 145)" fill="none" stroke="#f59e0b" stroke-width="3" stroke-linecap="round" stroke-linejoin="round">
    <circle cx="60" cy="130" r="12"/>
    <circle cx="130" cy="130" r="12"/>
    <path d="M20 20 L40 20 L60 100 L140 100 L160 40 L50 40"/>
  </g>
  <!-- Decorative elements -->
  <circle cx="680" cy="80" r="40" fill="#f59e0b" fill-opacity="0.1"/>
  <circle cx="120" cy="370" r="60" fill="#06b6d4" fill-opacity="0.08"/>
  <!-- Text -->
  <text x="400" y="400" text-anchor="middle" fill="#52525b" font-family="monospace" font-size="14">E-Commerce Platform</text>
</svg>
